<svg width="138" height="120" viewBox="0 0 138 120" fill="none" xmlns="http://www.w3.org/2000/svg">
<g clip-path="url(#clip0_73_45)">
<path d="M97.7177 87.6525C98.6852 89.135 96.8027 90.7975 95.5152 89.5825C75.4877 70.71 56.4777 51.645 38.4152 32.495C37.2027 31.2075 38.8552 29.3075 40.3277 30.29C56.7502 41.25 80.5002 61.25 97.7177 87.6525ZM95.3427 62.08C96.7302 63.2775 98.7302 61.6 97.7352 60.06C87.6027 44.3825 75.5827 35.0725 67.8977 30.255C66.3527 29.285 64.7327 31.275 65.9252 32.655C75.5002 43.75 84.2502 52.5 95.3427 62.08ZM40.1802 52.615C38.7652 51.775 37.2752 53.62 38.3927 54.8275C49.4777 66.81 61.0877 78.3925 73.1702 89.6075C74.3902 90.74 76.2327 89.1975 75.3652 87.7775C63.8527 68.94 50.5002 58.75 40.1802 52.615Z" fill="white"/>
</g>
<path d="M123 41.25C119.55 41.25 116.75 38.45 116.75 35C116.75 31.55 119.55 28.75 123 28.75C126.45 28.75 129.25 31.55 129.25 35C129.25 38.45 126.45 41.25 123 41.25Z" fill="white"/>
<path d="M15 96.25C11.55 96.25 8.75 93.45 8.75 90C8.75 86.55 11.55 83.75 15 83.75C18.45 83.75 21.25 86.55 21.25 90C21.25 93.45 18.45 96.25 15 96.25Z" fill="white"/>
<path d="M128.402 60C128.402 92.8574 101.565 119.5 68.4511 119.5C35.3375 119.5 8.5 92.8574 8.5 60C8.5 27.1426 35.3375 0.5 68.4511 0.5C101.565 0.5 128.402 27.1426 128.402 60Z" stroke="white"/>
<defs>
<clipPath id="clip0_73_45">
<rect width="60" height="60" fill="white" transform="translate(38 30)"/>
</clipPath>
</defs>
</svg>
