<svg width="22" height="21" viewBox="0 0 22 21" fill="none" xmlns="http://www.w3.org/2000/svg">
<g clip-path="url(#clip0_39_199)">
<path d="M22 10.5639C22 15.8042 17.9722 20.1486 12.7142 20.937V13.6194H15.2708L15.7575 10.5919H12.7142V8.6275C12.7142 7.79887 13.1395 6.99212 14.5017 6.99212H15.8849V4.41437C15.8849 4.41437 14.6291 4.20962 13.4292 4.20962C10.923 4.20962 9.28583 5.6595 9.28583 8.28362V10.591H6.50008V13.6185H9.28583V20.9361C4.02875 20.1469 0 15.8034 0 10.5639C0 4.76525 4.92525 0.0638733 11 0.0638733C17.0748 0.0638733 22 4.76437 22 10.5639Z" fill="white"/>
</g>
<defs>
<clipPath id="clip0_39_199">
<rect width="22" height="21" fill="white"/>
</clipPath>
</defs>
</svg>
