<svg width="130" height="132" viewBox="0 0 130 132" fill="none" xmlns="http://www.w3.org/2000/svg">
<g clip-path="url(#clip0_73_77)">
<path d="M56.2 36.25C56.2 35.0139 56.5666 33.8055 57.2533 32.7777C57.9401 31.7499 58.9162 30.9488 60.0582 30.4758C61.2003 30.0027 62.4569 29.8789 63.6693 30.1201C64.8817 30.3613 65.9953 30.9565 66.8694 31.8306C67.7435 32.7047 68.3387 33.8183 68.5799 35.0307C68.8211 36.2431 68.6973 37.4997 68.2242 38.6418C67.7512 39.7838 66.9501 40.7599 65.9223 41.4467C64.8945 42.1334 63.6861 42.5 62.45 42.5C60.7924 42.5 59.2027 41.8415 58.0306 40.6694C56.8585 39.4973 56.2 37.9076 56.2 36.25ZM82.45 47.5V90H77.45V60H68.405L66.14 55.4675L64.1775 65.55L59.6575 62.6075L62.105 50.035C62.0225 50.035 57.205 50 57.205 50L54.59 63.43C54.4947 63.9192 54.5477 64.4258 54.7424 64.8846C54.9371 65.3434 55.2645 65.7336 55.6825 66.005L67.45 73.6425V90H62.45V76.3575L52.9625 70.2C52.2485 69.7314 51.6195 69.1447 51.1025 68.465C49.6657 69.491 47.9377 70.029 46.1725 70C42 70 37.5 66.87 37.5 60C37.5 51.59 45.09 45 54.7825 45H61.86C63.254 44.995 64.6216 45.3806 65.8076 46.1132C66.9936 46.8459 67.9505 47.8962 68.57 49.145L71.5 55H77.45V47.5H82.45ZM49.78 61.9525L52.06 50.25C47 51.195 42.5 54.685 42.5 60C42.5 64.75 45.56 65 46.1725 65C47.032 64.9825 47.8595 64.6702 48.5162 64.1154C49.173 63.5606 49.6191 62.797 49.78 61.9525ZM49.8525 74.1L47.135 90H52.25L54.3675 77.065L50.25 74.3925C50.1 74.305 49.985 74.1925 49.8525 74.1Z" fill="white"/>
</g>
<path d="M115 41.25C111.55 41.25 108.75 38.45 108.75 35C108.75 31.55 111.55 28.75 115 28.75C118.45 28.75 121.25 31.55 121.25 35C121.25 38.45 118.45 41.25 115 41.25Z" fill="white"/>
<path d="M53 123.25C49.55 123.25 46.75 120.45 46.75 117C46.75 113.55 49.55 110.75 53 110.75C56.45 110.75 59.25 113.55 59.25 117C59.25 120.45 56.45 123.25 53 123.25Z" fill="white"/>
<path d="M120.402 60C120.402 92.8574 93.5648 119.5 60.4511 119.5C27.3375 119.5 0.5 92.8574 0.5 60C0.5 27.1426 27.3375 0.5 60.4511 0.5C93.5648 0.5 120.402 27.1426 120.402 60Z" stroke="white"/>
<defs>
<clipPath id="clip0_73_77">
<rect width="60" height="60" fill="white" transform="translate(30 30)"/>
</clipPath>
</defs>
</svg>
