<svg width="25" height="28" viewBox="0 0 25 28" fill="none" xmlns="http://www.w3.org/2000/svg">
<g clip-path="url(#clip0_39_180)">
<path d="M12.4997 7.08331C11.6756 7.08331 10.87 7.34398 10.1848 7.83234C9.4996 8.3207 8.96554 9.01483 8.65018 9.82694C8.33481 10.6391 8.2523 11.5327 8.41307 12.3948C8.57384 13.257 8.97068 14.0489 9.5534 14.6705C10.1361 15.292 10.8785 15.7153 11.6868 15.8868C12.4951 16.0583 13.3328 15.9703 14.0942 15.6339C14.8556 15.2975 15.5063 14.7278 15.9641 13.997C16.422 13.2661 16.6663 12.4068 16.6663 11.5278C16.6663 10.349 16.2274 9.21856 15.446 8.38506C14.6646 7.55157 13.6047 7.08331 12.4997 7.08331ZM12.4997 13.75C12.0876 13.75 11.6848 13.6197 11.3422 13.3755C10.9996 13.1313 10.7326 12.7842 10.5749 12.3782C10.4172 11.9721 10.376 11.5253 10.4564 11.0942C10.5368 10.6632 10.7352 10.2672 11.0265 9.95641C11.3179 9.64563 11.6891 9.43398 12.0932 9.34823C12.4974 9.26249 12.9163 9.3065 13.2969 9.47469C13.6776 9.64289 14.003 9.92772 14.2319 10.2932C14.4608 10.6586 14.583 11.0882 14.583 11.5278C14.583 12.1171 14.3635 12.6824 13.9728 13.0991C13.5821 13.5159 13.0522 13.75 12.4997 13.75Z" fill="white"/>
<path d="M12.5003 27.0833C11.6232 27.0881 10.7577 26.8687 9.97644 26.4434C9.19514 26.0181 8.52074 25.3993 8.0097 24.6389C4.03991 18.7978 2.02637 14.4066 2.02637 11.5866C2.02637 8.62359 3.12987 5.78189 5.09412 3.6867C7.05837 1.5915 9.72246 0.414429 12.5003 0.414429C15.2782 0.414429 17.9423 1.5915 19.9065 3.6867C21.8708 5.78189 22.9743 8.62359 22.9743 11.5866C22.9743 14.4066 20.9607 18.7978 16.991 24.6389C16.4799 25.3993 15.8055 26.0181 15.0242 26.4434C14.2429 26.8687 13.3775 27.0881 12.5003 27.0833ZM12.5003 2.83998C10.3258 2.84263 8.24097 3.76523 6.70332 5.4054C5.16567 7.04556 4.30072 9.26933 4.29824 11.5889C4.29824 13.8222 6.27012 17.9522 9.84928 23.2178C10.1531 23.6642 10.5518 24.0275 11.0125 24.278C11.4733 24.5286 11.9831 24.6592 12.5003 24.6592C13.0175 24.6592 13.5274 24.5286 13.9881 24.278C14.4489 24.0275 14.8475 23.6642 15.1514 23.2178C18.7305 17.9522 20.7024 13.8222 20.7024 11.5889C20.6999 9.26933 19.835 7.04556 18.2973 5.4054C16.7597 3.76523 14.6749 2.84263 12.5003 2.83998Z" fill="white"/>
</g>
<defs>
<clipPath id="clip0_39_180">
<rect width="25" height="26.6667" fill="white" transform="translate(0 0.416626)"/>
</clipPath>
</defs>
</svg>
