<svg width="25" height="27" viewBox="0 0 25 27" fill="none" xmlns="http://www.w3.org/2000/svg">
<g clip-path="url(#clip0_39_175)">
<path d="M24.6949 24.8368L18.4772 18.2045C20.1716 15.9941 21.0047 13.1735 20.8042 10.3263C20.6036 7.47901 19.3847 4.8229 17.3997 2.90733C15.4147 0.991766 12.8153 -0.0366991 10.1394 0.0346696C7.46336 0.106038 4.91546 1.27178 3.02265 3.29077C1.12985 5.30976 0.0369682 8.02752 -0.02994 10.8819C-0.0968482 13.7363 0.867338 16.5089 2.66318 18.6263C4.45903 20.7437 6.94913 22.0438 9.61844 22.2577C12.2877 22.4716 14.932 21.583 17.0043 19.7757L23.222 26.4079C23.4185 26.6103 23.6816 26.7223 23.9547 26.7197C24.2279 26.7172 24.4891 26.6003 24.6823 26.3943C24.8754 26.1883 24.9849 25.9097 24.9873 25.6183C24.9897 25.327 24.8847 25.0463 24.6949 24.8368ZM10.4168 20.0668C8.76863 20.0668 7.15747 19.5454 5.78706 18.5687C4.41665 17.592 3.34854 16.2037 2.71781 14.5795C2.08708 12.9553 1.92205 11.168 2.2436 9.44373C2.56514 7.71946 3.35881 6.13561 4.52425 4.89247C5.68969 3.64934 7.17455 2.80275 8.79106 2.45977C10.4076 2.11679 12.0831 2.29282 13.6058 2.9656C15.1286 3.63838 16.43 4.77769 17.3457 6.23946C18.2614 7.70124 18.7501 9.41981 18.7501 11.1779C18.7477 13.5345 17.8689 15.7939 16.3066 17.4603C14.7444 19.1268 12.6262 20.0641 10.4168 20.0668Z" fill="white"/>
</g>
<defs>
<clipPath id="clip0_39_175">
<rect width="25" height="26.6667" fill="white" transform="translate(0 0.0667114)"/>
</clipPath>
</defs>
</svg>
