<svg width="129" height="123" viewBox="0 0 129 123" fill="none" xmlns="http://www.w3.org/2000/svg">
<path d="M103 114.25C99.55 114.25 96.75 111.45 96.75 108C96.75 104.55 99.55 101.75 103 101.75C106.45 101.75 109.25 104.55 109.25 108C109.25 111.45 106.45 114.25 103 114.25Z" fill="white"/>
<path d="M15 36.25C11.55 36.25 8.75 33.45 8.75 30C8.75 26.55 11.55 23.75 15 23.75C18.45 23.75 21.25 26.55 21.25 30C21.25 33.45 18.45 36.25 15 36.25Z" fill="white"/>
<path d="M128.402 60C128.402 92.8574 101.565 119.5 68.4511 119.5C35.3375 119.5 8.5 92.8574 8.5 60C8.5 27.1426 35.3375 0.5 68.4511 0.5C101.565 0.5 128.402 27.1426 128.402 60Z" stroke="white"/>
<path d="M65.8996 59.2325L61.4996 54.665L56.0996 59.8625L61.5996 65.58C62.1391 66.1512 62.7871 66.609 63.5057 66.9267C64.2243 67.2443 64.9991 67.4155 65.7846 67.43H65.8771C67.4344 67.4255 68.9273 66.8076 70.0321 65.71L82.5846 53.1525L77.2796 47.8525L65.8996 59.2325Z" fill="white"/>
<path d="M67.805 90L66.4775 89.4075C65.5175 88.9725 43 78.75 43 60V43.8125C43.0001 42.2381 43.4957 40.7038 44.4164 39.4268C45.3371 38.1498 46.6364 37.1949 48.13 36.6975L68 30.075L87.8725 36.7C89.3665 37.1957 90.6662 38.1499 91.5867 39.4268C92.5072 40.7037 93.0018 42.2383 93 43.8125V60C93 81.3475 70.1575 89.2049 69.185 89.5299L67.805 90ZM68 37.98L50.5 43.8125V60C50.5 71.675 63.86 79.6175 68.1925 81.8825C72.5475 80.0649 85.5 73.52 85.5 60V43.8125L68 37.98Z" fill="white"/>
</svg>
