<svg width="22" height="21" viewBox="0 0 22 21" fill="none" xmlns="http://www.w3.org/2000/svg">
<g clip-path="url(#clip0_39_209)">
<path d="M19.7477 6.21599C19.7606 6.40062 19.7606 6.58612 19.7606 6.77249C19.7606 12.4661 15.2194 19.0312 6.91808 19.0312V19.0277C4.466 19.0312 2.06433 18.361 0 17.0966C0.356583 17.1377 0.715 17.1579 1.07433 17.1587C3.1075 17.1605 5.082 16.5095 6.67975 15.3107C4.74833 15.2757 3.05433 14.0735 2.46308 12.3182C3.13958 12.4425 3.83625 12.4171 4.50083 12.2447C2.39433 11.8387 0.88 10.0721 0.88 8.02112C0.88 8.00274 0.88 7.98437 0.88 7.96687C1.50792 8.30112 2.21008 8.48574 2.92875 8.50587C0.945083 7.24149 0.33275 4.72324 1.53083 2.75449C3.8225 5.44599 7.20408 7.08224 10.8332 7.25637C10.4693 5.76012 10.967 4.19212 12.1385 3.13949C13.9562 1.50762 16.8153 1.59162 18.5249 3.32674C19.536 3.13687 20.5049 2.78249 21.3913 2.28112C21.054 3.27862 20.3491 4.12562 19.4067 4.66462C20.3023 4.56224 21.1759 4.33387 22 3.98562C21.3941 4.85099 20.6314 5.60612 19.7477 6.21599Z" fill="white"/>
</g>
<defs>
<clipPath id="clip0_39_209">
<rect width="22" height="21" fill="white"/>
</clipPath>
</defs>
</svg>
