<svg width="25" height="28" viewBox="0 0 25 28" fill="none" xmlns="http://www.w3.org/2000/svg">
<g clip-path="url(#clip0_39_189)">
<path d="M12.5 13.7014C13.7361 13.7014 14.9445 13.3104 15.9723 12.5778C17.0001 11.8453 17.8012 10.8041 18.2742 9.58593C18.7473 8.36776 18.8711 7.02732 18.6299 5.73411C18.3888 4.4409 17.7935 3.25302 16.9194 2.32067C16.0453 1.38832 14.9317 0.753378 13.7193 0.496143C12.5069 0.238908 11.2503 0.370931 10.1082 0.875515C8.96619 1.3801 7.99007 2.23458 7.30332 3.33091C6.61656 4.42724 6.25 5.71617 6.25 7.03471C6.25165 8.80228 6.91067 10.4969 8.08241 11.7468C9.25415 12.9967 10.8429 13.6996 12.5 13.7014ZM12.5 2.59027C13.3241 2.59027 14.1297 2.85093 14.8149 3.33929C15.5001 3.82765 16.0341 4.52178 16.3495 5.3339C16.6649 6.14601 16.7474 7.03964 16.5866 7.90178C16.4258 8.76392 16.029 9.55584 15.4463 10.1774C14.8636 10.799 14.1211 11.2223 13.3129 11.3938C12.5046 11.5652 11.6668 11.4772 10.9055 11.1408C10.1441 10.8045 9.49338 10.2348 9.03554 9.50391C8.5777 8.77303 8.33333 7.91374 8.33333 7.03471C8.33333 5.85597 8.77232 4.72551 9.55372 3.89201C10.3351 3.05852 11.3949 2.59027 12.5 2.59027Z" fill="white"/>
<path d="M12.5 15.9236C10.0144 15.9265 7.63147 16.981 5.87392 18.8558C4.11636 20.7305 3.12776 23.2723 3.125 25.9236C3.125 26.2183 3.23475 26.5009 3.4301 26.7093C3.62545 26.9176 3.8904 27.0347 4.16667 27.0347C4.44293 27.0347 4.70789 26.9176 4.90324 26.7093C5.09859 26.5009 5.20833 26.2183 5.20833 25.9236C5.20833 23.8608 5.97656 21.8825 7.34401 20.4239C8.71147 18.9652 10.5661 18.1458 12.5 18.1458C14.4339 18.1458 16.2885 18.9652 17.656 20.4239C19.0234 21.8825 19.7917 23.8608 19.7917 25.9236C19.7917 26.2183 19.9014 26.5009 20.0968 26.7093C20.2921 26.9176 20.5571 27.0347 20.8333 27.0347C21.1096 27.0347 21.3746 26.9176 21.5699 26.7093C21.7653 26.5009 21.875 26.2183 21.875 25.9236C21.8722 23.2723 20.8836 20.7305 19.1261 18.8558C17.3685 16.981 14.9856 15.9265 12.5 15.9236Z" fill="white"/>
</g>
<defs>
<clipPath id="clip0_39_189">
<rect width="25" height="26.6667" fill="white" transform="translate(0 0.368042)"/>
</clipPath>
</defs>
</svg>
