<svg width="121" height="150" viewBox="0 0 121 150" fill="none" xmlns="http://www.w3.org/2000/svg">
<g clip-path="url(#clip0_73_67)">
<path d="M48.75 77.5C46.525 77.5 44.3499 76.8402 42.4998 75.604C40.6498 74.3679 39.2078 72.6109 38.3564 70.5552C37.5049 68.4995 37.2821 66.2375 37.7162 64.0552C38.1502 61.873 39.2217 59.8684 40.795 58.2951C42.3684 56.7217 44.3729 55.6503 46.5552 55.2162C48.7375 54.7821 50.9995 55.0049 53.0552 55.8564C55.1109 56.7078 56.8679 58.1498 58.104 59.9998C59.3402 61.8499 60 64.025 60 66.25C59.9967 69.2327 58.8104 72.0922 56.7013 74.2013C54.5922 76.3104 51.7327 77.4967 48.75 77.5ZM48.75 62.5C48.0083 62.5 47.2833 62.7199 46.6666 63.132C46.0499 63.5441 45.5693 64.1297 45.2855 64.8149C45.0016 65.5002 44.9274 66.2542 45.0721 66.9816C45.2167 67.709 45.5739 68.3772 46.0983 68.9017C46.6228 69.4261 47.291 69.7833 48.0184 69.9279C48.7458 70.0726 49.4998 69.9984 50.1851 69.7146C50.8703 69.4307 51.456 68.9501 51.868 68.3334C52.2801 67.7167 52.5 66.9917 52.5 66.25C52.5 65.2554 52.1049 64.3016 51.4017 63.5984C50.6984 62.8951 49.7446 62.5 48.75 62.5ZM67.5 101.25C67.5 96.2772 65.5246 91.5081 62.0083 87.9918C58.4919 84.4754 53.7228 82.5 48.75 82.5C43.7772 82.5 39.0081 84.4754 35.4917 87.9918C31.9754 91.5081 30 96.2772 30 101.25C30 102.245 30.3951 103.198 31.0983 103.902C31.8016 104.605 32.7554 105 33.75 105C34.7446 105 35.6984 104.605 36.4017 103.902C37.1049 103.198 37.5 102.245 37.5 101.25C37.5 98.2663 38.6853 95.4048 40.795 93.2951C42.9048 91.1853 45.7663 90 48.75 90C51.7337 90 54.5952 91.1853 56.705 93.2951C58.8147 95.4048 60 98.2663 60 101.25C60 102.245 60.3951 103.198 61.0983 103.902C61.8016 104.605 62.7554 105 63.75 105C64.7446 105 65.6984 104.605 66.4016 103.902C67.1049 103.198 67.5 102.245 67.5 101.25ZM90 90C90.0003 86.681 89.0568 83.4303 87.2794 80.6272C85.5021 77.8242 82.9643 75.5843 79.9621 74.1691C76.9599 72.7538 73.6172 72.2215 70.3239 72.6342C67.0306 73.0469 63.9226 74.3877 61.3625 76.5C60.9827 76.8135 60.6683 77.1988 60.4373 77.6338C60.2064 78.0689 60.0634 78.5451 60.0165 79.0354C59.9696 79.5257 60.0197 80.0204 60.164 80.4914C60.3083 80.9623 60.544 81.4002 60.8575 81.78C61.171 82.1599 61.5563 82.4742 61.9913 82.7052C62.4264 82.9361 62.9026 83.0791 63.3929 83.126C63.8832 83.1729 64.3779 83.1228 64.8489 82.9785C65.3198 82.8342 65.7577 82.5985 66.1375 82.285C67.9236 80.7987 70.1764 79.9896 72.5 80C75.1522 80 77.6957 81.0536 79.5711 82.9289C81.4464 84.8043 82.5 87.3478 82.5 90C82.5 90.9946 82.8951 91.9484 83.5984 92.6517C84.3016 93.3549 85.2554 93.75 86.25 93.75C87.2446 93.75 88.1984 93.3549 88.9016 92.6517C89.6049 91.9484 90 90.9946 90 90ZM73.75 67.5C71.525 67.5 69.3499 66.8402 67.4998 65.604C65.6498 64.3679 64.2078 62.6109 63.3564 60.5552C62.5049 58.4995 62.2821 56.2375 62.7162 54.0552C63.1502 51.873 64.2217 49.8684 65.7951 48.2951C67.3684 46.7217 69.3729 45.6503 71.5552 45.2162C73.7375 44.7821 75.9995 45.0049 78.0552 45.8564C80.1109 46.7078 81.8679 48.1498 83.104 49.9998C84.3402 51.8499 85 54.025 85 56.25C84.9967 59.2327 83.8104 62.0922 81.7013 64.2013C79.5922 66.3104 76.7327 67.4967 73.75 67.5ZM73.75 52.5C73.0083 52.5 72.2833 52.7199 71.6666 53.132C71.0499 53.544 70.5693 54.1297 70.2855 54.8149C70.0016 55.5002 69.9274 56.2542 70.0721 56.9816C70.2168 57.709 70.5739 58.3772 71.0984 58.9017C71.6228 59.4261 72.291 59.7833 73.0184 59.9279C73.7458 60.0726 74.4998 59.9984 75.1851 59.7146C75.8703 59.4307 76.456 58.9501 76.868 58.3334C77.2801 57.7167 77.5 56.9917 77.5 56.25C77.5 55.2554 77.1049 54.3016 76.4016 53.5984C75.6984 52.8951 74.7446 52.5 73.75 52.5Z" fill="white"/>
</g>
<path d="M55 21.25C51.55 21.25 48.75 18.45 48.75 15C48.75 11.55 51.55 8.75 55 8.75C58.45 8.75 61.25 11.55 61.25 15C61.25 18.45 58.45 21.25 55 21.25Z" fill="white"/>
<path d="M58 141.25C54.55 141.25 51.75 138.45 51.75 135C51.75 131.55 54.55 128.75 58 128.75C61.45 128.75 64.25 131.55 64.25 135C64.25 138.45 61.45 141.25 58 141.25Z" fill="white"/>
<path d="M120.402 75C120.402 107.857 93.5648 134.5 60.4511 134.5C27.3375 134.5 0.5 107.857 0.5 75C0.5 42.1426 27.3375 15.5 60.4511 15.5C93.5648 15.5 120.402 42.1426 120.402 75Z" stroke="white"/>
<defs>
<clipPath id="clip0_73_67">
<rect width="60" height="60" fill="white" transform="translate(30 45)"/>
</clipPath>
</defs>
</svg>
