<svg width="25" height="26" viewBox="0 0 25 26" fill="none" xmlns="http://www.w3.org/2000/svg">
<g clip-path="url(#clip0_39_185)">
<path d="M12.5 0.282593C10.0277 0.282593 7.61099 1.01571 5.55538 2.38922C3.49976 3.76274 1.89761 5.71497 0.951512 7.99905C0.00541608 10.2831 -0.242126 12.7965 0.24019 15.2212C0.722505 17.646 1.91301 19.8733 3.66117 21.6214C5.40933 23.3696 7.63662 24.5601 10.0614 25.0424C12.4861 25.5247 14.9995 25.2772 17.2836 24.3311C19.5676 23.385 21.5199 21.7828 22.8934 19.7272C24.2669 17.6716 25 15.2549 25 12.7826C24.9964 9.46849 23.6783 6.29115 21.3349 3.94772C18.9915 1.60429 15.8141 0.286177 12.5 0.282593ZM22.9167 12.7826C22.9179 14.824 22.3156 16.8201 21.1854 18.5201L19.9438 17.2774C19.8464 17.1798 19.7917 17.0475 19.7917 16.9097V15.9076C19.7917 15.0788 19.4624 14.2839 18.8764 13.6979C18.2903 13.1118 17.4955 12.7826 16.6667 12.7826H13.5417C13.2654 12.7826 13.0005 12.6728 12.8051 12.4775C12.6098 12.2821 12.5 12.0172 12.5 11.7409V11.2201C12.5 11.082 12.5549 10.9495 12.6526 10.8518C12.7502 10.7541 12.8827 10.6993 13.0208 10.6993C13.7115 10.6993 14.3739 10.4249 14.8623 9.93652C15.3506 9.44814 15.625 8.78576 15.625 8.09509V7.05343C15.625 6.91529 15.6799 6.78282 15.7776 6.68514C15.8752 6.58747 16.0077 6.53259 16.1458 6.53259H17.5823C18.2723 6.53063 18.9337 6.25665 19.4229 5.77009L19.8156 5.37739C20.7981 6.34413 21.5783 7.4968 22.1107 8.76819C22.6431 10.0396 22.9171 11.4042 22.9167 12.7826ZM2.13438 13.7857L5.42396 17.0753C5.71345 17.3667 6.0579 17.5976 6.43735 17.7548C6.81679 17.912 7.22367 17.9922 7.63438 17.9909H10.4167C10.6929 17.9909 10.9579 18.1007 11.1532 18.296C11.3486 18.4914 11.4583 18.7563 11.4583 19.0326V23.1461C9.06271 22.9016 6.82542 21.8359 5.12597 20.1298C3.42653 18.4237 2.36957 16.1823 2.13438 13.7857ZM13.5417 23.1461V19.0326C13.5417 18.2038 13.2124 17.4089 12.6264 16.8229C12.0403 16.2368 11.2455 15.9076 10.4167 15.9076H7.63438C7.49742 15.9077 7.36179 15.8808 7.23524 15.8284C7.10869 15.7761 6.99371 15.6992 6.89688 15.6024L2.25313 10.9586C2.55123 9.26405 3.26536 7.66998 4.33144 6.31945C5.39752 4.96891 6.7822 3.90416 8.36125 3.22073C9.9403 2.5373 11.6643 2.25657 13.3786 2.40372C15.0929 2.55087 16.7439 3.12131 18.1833 4.06384L17.95 4.29718C17.852 4.39387 17.72 4.44845 17.5823 4.44926H16.1458C15.4552 4.44926 14.7928 4.72363 14.3044 5.212C13.816 5.70038 13.5417 6.36276 13.5417 7.05343V8.09509C13.5417 8.23323 13.4868 8.3657 13.3891 8.46338C13.2915 8.56105 13.159 8.61593 13.0208 8.61593C12.3302 8.61593 11.6678 8.89029 11.1794 9.37867C10.691 9.86705 10.4167 10.5294 10.4167 11.2201V11.7409C10.4167 12.5697 10.7459 13.3646 11.332 13.9506C11.918 14.5367 12.7129 14.8659 13.5417 14.8659H16.6667C16.9429 14.8659 17.2079 14.9757 17.4032 15.171C17.5986 15.3664 17.7083 15.6313 17.7083 15.9076V16.9097C17.7103 17.5997 17.9843 18.2611 18.4708 18.7503L19.8636 20.143C18.1672 21.8453 15.9329 22.9066 13.5417 23.1461Z" fill="white"/>
</g>
<defs>
<clipPath id="clip0_39_185">
<rect width="25" height="25" fill="white" transform="translate(0 0.282593)"/>
</clipPath>
</defs>
</svg>
