<svg width="21" height="21" viewBox="0 0 21 21" fill="none" xmlns="http://www.w3.org/2000/svg">
<g clip-path="url(#clip0_39_211)">
<path d="M20.5607 5.41275C20.3192 4.50363 19.6079 3.787 18.704 3.54375C17.0669 3.10275 10.5 3.10275 10.5 3.10275C10.5 3.10275 3.93312 3.10275 2.29512 3.54375C1.39212 3.787 0.68075 4.50275 0.43925 5.41275C0 7.06125 0 10.5 0 10.5C0 10.5 0 13.9388 0.43925 15.5873C0.68075 16.4964 1.39213 17.213 2.296 17.4563C3.93313 17.8973 10.5 17.8973 10.5 17.8973C10.5 17.8973 17.0669 17.8973 18.7049 17.4563C19.6079 17.213 20.3193 16.4973 20.5616 15.5873C21 13.9388 21 10.5 21 10.5C21 10.5 21 7.06125 20.5607 5.41275ZM8.35275 13.6229V7.37713L13.8407 10.5L8.35275 13.6229Z" fill="white"/>
</g>
<defs>
<clipPath id="clip0_39_211">
<rect width="21" height="21" fill="white"/>
</clipPath>
</defs>
</svg>
